<svg width="16" height="16" viewBox="0 0 16 16" fill="none" xmlns="http://www.w3.org/2000/svg">
<path d="M2 12V4C2 2.89543 2.89543 2 4 2H12C13.1046 2 14 2.89543 14 4V12C14 13.1046 13.1046 14 12 14H4C2.89543 14 2 13.1046 2 12Z" stroke="#CCCCCC"/>
<path d="M11.0317 4.79999L11.1123 6.508H10.9082C10.8688 6.20721 10.8151 5.99237 10.7471 5.86346C10.6361 5.65578 10.4875 5.5036 10.3013 5.40692C10.1187 5.30666 9.87695 5.25653 9.57617 5.25653H8.55029V10.821C8.55029 11.2686 8.59863 11.5479 8.69531 11.6589C8.83138 11.8093 9.04085 11.8845 9.32373 11.8845H9.57617V12.0832H6.48779V11.8845H6.74561C7.05355 11.8845 7.27197 11.7914 7.40088 11.6052C7.47965 11.4906 7.51904 11.2292 7.51904 10.821V5.25653H6.64355C6.30339 5.25653 6.06169 5.2816 5.91846 5.33173C5.73226 5.39976 5.57292 5.53046 5.44043 5.72382C5.30794 5.91718 5.22917 6.17857 5.2041 6.508H5L5.08594 4.79999H11.0317Z" fill="#CCCCCC"/>
</svg>
