<svg width="16" height="16" viewBox="0 0 16 16" fill="none" xmlns="http://www.w3.org/2000/svg">
<path d="M2 16V0H10L14 4V16H2Z" fill="url(#paint0_linear_1_557)"/>
<path d="M10 4V0L14 4H10Z" fill="white"/>
<path d="M10.0902 5.34277C10.4472 5.34292 10.7769 5.53361 10.9554 5.84277L13.0355 9.44531C13.2142 9.75471 13.2142 10.1359 13.0355 10.4453L10.9554 14.0479C10.7769 14.3571 10.4473 14.5477 10.0902 14.5479H5.93005C5.57279 14.5479 5.24248 14.3573 5.06384 14.0479L2.98376 10.4453C2.80522 10.1359 2.80517 9.75466 2.98376 9.44531L5.06384 5.84277C5.24248 5.53339 5.5728 5.34277 5.93005 5.34277H10.0902ZM8.00037 8C6.89584 8 6.00043 8.89549 6.00037 10C6.00037 11.1046 6.8958 12 8.00037 12C9.10477 11.9998 10.0004 11.1044 10.0004 10C10.0003 8.89561 9.10473 8.0002 8.00037 8Z" fill="#A1A1A1"/>
<defs>
<linearGradient id="paint0_linear_1_557" x1="8" y1="7" x2="14" y2="1" gradientUnits="userSpaceOnUse">
<stop stop-color="#D9D9D9"/>
<stop offset="1" stop-color="#8C8C8C"/>
</linearGradient>
</defs>
</svg>
