<svg width="16" height="16" viewBox="0 0 16 16" fill="none" xmlns="http://www.w3.org/2000/svg">
<path d="M2 16V0H10L14 4V16H2Z" fill="url(#paint0_linear_1_532)"/>
<path d="M10 4V0L14 4H10Z" fill="white"/>
<path d="M5.41211 4.90039L5.43555 4.9668L8.02051 12.2002L10.5635 4.9668L10.5879 4.90039H12.8496V5.3457H12.4941C12.2061 5.3457 12.0204 5.44771 11.9111 5.63965C11.8813 5.69254 11.8527 5.79239 11.833 5.95117C11.8137 6.107 11.8037 6.30957 11.8037 6.55957V12.8984C11.8037 13.1725 11.8164 13.3919 11.8408 13.5576C11.8658 13.7271 11.9014 13.8264 11.9365 13.874L11.9375 13.875C12.0481 14.028 12.2262 14.1123 12.4941 14.1123H12.8496V14.5576H9.5127V14.1123H9.87402C10.1621 14.1123 10.3455 14.0104 10.4512 13.8193V13.8184C10.481 13.7655 10.5096 13.6656 10.5293 13.5068C10.5486 13.351 10.5586 13.1484 10.5586 12.8984V7.00684L7.90332 14.4912L7.87988 14.5576H7.55859L7.53516 14.4912L4.875 7.00684V12.8984C4.87501 13.1725 4.88757 13.3917 4.91113 13.5576C4.93527 13.7276 4.96986 13.8272 5.00391 13.875H5.00293C5.11353 14.028 5.29166 14.1123 5.55957 14.1123H5.9209V14.5576H3.15039V14.1123H3.51172C3.79563 14.1122 3.97945 14.01 4.08887 13.8174C4.1186 13.7644 4.14741 13.6651 4.16699 13.5068C4.18626 13.351 4.19628 13.1484 4.19629 12.8984V6.55957C4.19628 6.16386 4.15933 5.89319 4.09473 5.73535L4.09375 5.7334C4.05219 5.62875 3.97414 5.53854 3.85156 5.46387L3.84863 5.46191C3.73954 5.39007 3.54641 5.3457 3.25 5.3457H3.15039V4.90039H5.41211Z" fill="#1E1E1E" stroke="#1E1E1E" stroke-width="0.2"/>
<defs>
<linearGradient id="paint0_linear_1_532" x1="8" y1="7" x2="14" y2="1" gradientUnits="userSpaceOnUse">
<stop stop-color="#D9D9D9"/>
<stop offset="1" stop-color="#8C8C8C"/>
</linearGradient>
</defs>
</svg>
