<svg width="16" height="16" viewBox="0 0 16 16" fill="none" xmlns="http://www.w3.org/2000/svg">
<path d="M8 14.625H10.125V10.375H8V12.5V14.625ZM2.5 2H0.375V7.5H2.5H4.625V2H2.5ZM7.5 12.5V14.625H8V12.5V10.375H7.5V12.5ZM2.5 7.5H0.375C0.375 11.435 3.56497 14.625 7.5 14.625V12.5V10.375C5.91218 10.375 4.625 9.08782 4.625 7.5H2.5Z" fill="#505B93"/>
<path d="M10 0C13.3137 0 16 2.68629 16 6V13.5C16 14.8807 14.8807 16 13.5 16C12.1193 16 11 14.8807 11 13.5C11 12.1193 12.1193 11 13.5 11V13C13.2239 13 13 13.2239 13 13.5C13 13.7761 13.2239 14 13.5 14C13.7761 14 14 13.7761 14 13.5V9.5H7.5C6.39543 9.5 5.5 8.60457 5.5 7.5V0H10ZM12 5.5C11.4477 5.5 11 5.94772 11 6.5C11 7.05228 11.4477 7.5 12 7.5C12.5523 7.5 13 7.05228 13 6.5C13 5.94772 12.5523 5.5 12 5.5Z" fill="#7A86B8"/>
</svg>
