<svg width="16" height="16" viewBox="0 0 16 16" fill="none" xmlns="http://www.w3.org/2000/svg">
<path d="M2 16V0H10L14 4V16H2Z" fill="url(#paint0_linear_1_523)"/>
<path d="M10 4V0L14 4H10Z" fill="white"/>
<path d="M11.9893 5.40039L11.9941 5.49512L12.0996 7.60547L12.1055 7.71094H11.6455L11.6338 7.62402C11.5954 7.3472 11.5473 7.13766 11.4922 6.99023L11.4346 6.86328C11.2983 6.62275 11.1185 6.44963 10.8945 6.33984L10.8926 6.33887C10.6728 6.22496 10.3738 6.16406 9.98926 6.16406H8.74707V12.5C8.74707 12.7734 8.76289 12.9911 8.79297 13.1553C8.82343 13.3215 8.8662 13.4183 8.90918 13.4658L8.96973 13.5225C9.12309 13.6461 9.34832 13.7139 9.65918 13.7139H10.0898V14.1602H5.84766V13.7139H6.28516C6.66993 13.7138 6.91865 13.6048 7.06152 13.4102L7.08887 13.3633C7.11588 13.307 7.14032 13.2226 7.15918 13.1045C7.18378 12.9502 7.19727 12.7493 7.19727 12.5V6.16406H6.15137C5.70703 6.16406 5.40437 6.19454 5.2334 6.25098L5.23438 6.25195C5.01297 6.32843 4.82029 6.47552 4.65723 6.7002C4.49798 6.91962 4.39906 7.22364 4.36719 7.61914L4.35938 7.71094H3.89453L3.90039 7.60547L4.0127 5.49512L4.01758 5.40039H11.9893Z" fill="#1E1E1E" stroke="#1E1E1E" stroke-width="0.2"/>
<defs>
<linearGradient id="paint0_linear_1_523" x1="8" y1="7" x2="14" y2="1" gradientUnits="userSpaceOnUse">
<stop stop-color="#D9D9D9"/>
<stop offset="1" stop-color="#8C8C8C"/>
</linearGradient>
</defs>
</svg>
